<?xml version="1.0" standalone="no"?>
<!DOCTYPE svg PUBLIC "-//W3C//DTD SVG 20010904//EN"
 "http://www.w3.org/TR/2001/REC-SVG-20010904/DTD/svg10.dtd">
<svg version="1.0" xmlns="http://www.w3.org/2000/svg"
 width="1024.000000pt" height="1024.000000pt" viewBox="0 0 1024.000000 1024.000000"
 preserveAspectRatio="xMidYMid meet">

<g transform="translate(0.000000,1024.000000) scale(0.100000,-0.100000)"
fill="#003932" stroke="none">
<path d="M3595 7693 c2 -413 4 -441 23 -496 33 -93 356 -693 677 -1257 210
-370 308 -520 660 -1010 230 -320 362 -510 627 -899 l98 -145 0 -75 c0 -237
84 -462 245 -662 277 -343 780 -452 1193 -259 267 126 463 367 549 676 25 89
28 114 27 259 0 144 -3 169 -27 250 -106 354 -380 631 -707 715 -233 61 -500
35 -689 -65 -36 -19 -65 -34 -66 -32 -1 1 -66 101 -145 222 -185 283 -279 432
-286 450 -5 13 122 256 341 650 259 465 578 1058 610 1135 13 30 28 82 34 114
13 71 15 859 2 854 -9 -3 -97 -107 -152 -178 -29 -39 -179 -224 -389 -480 -30
-37 -111 -137 -179 -221 -292 -360 -521 -640 -596 -729 -44 -52 -120 -146
-169 -208 -72 -93 -91 -111 -101 -100 -37 40 -343 413 -560 683 -138 171 -412
508 -610 750 -198 242 -370 453 -381 468 -12 15 -24 27 -27 27 -2 0 -3 -197
-2 -437z m1713 -2146 c85 -56 124 -166 92 -262 -28 -86 -113 -145 -210 -145
-171 0 -275 173 -197 327 43 84 98 114 203 110 58 -2 78 -7 112 -30z m1537
-1202 c165 -43 306 -174 367 -340 30 -83 36 -245 13 -335 -33 -129 -132 -266
-241 -336 -89 -57 -164 -77 -289 -77 -175 1 -279 46 -403 176 -71 75 -115 159
-137 263 -28 131 -11 247 55 380 66 135 180 230 321 268 73 20 240 20 314 1z"/>
<path d="M4455 5151 c-7 -15 -269 -442 -280 -459 -1 -1 -40 16 -86 38 -116 55
-221 81 -360 87 -363 17 -689 -142 -887 -434 -216 -319 -231 -752 -36 -1084
97 -165 239 -302 404 -387 168 -88 288 -117 475 -115 161 1 282 30 430 103
286 140 493 423 550 754 8 49 15 119 15 156 0 77 -10 60 213 382 l136 198
-177 247 c-96 137 -210 298 -252 358 -95 139 -122 175 -130 175 -3 0 -10 -9
-15 -19z m-641 -806 c176 -46 317 -178 377 -354 93 -268 -52 -592 -312 -697
-157 -64 -373 -44 -506 47 -161 111 -247 274 -247 469 0 253 145 454 384 531
70 23 224 25 304 4z"/>
<path d="M3850 2063 c-29 -11 -60 -47 -60 -70 0 -13 11 -35 25 -48 l24 -25
1344 0 1344 0 27 25 c14 13 26 29 26 35 0 27 -32 69 -61 79 -33 11 -2638 15
-2669 4z"/>
</g>
</svg>
